<?xml version="1.0" encoding="utf-8"?>
<!-- Generator: Adobe Illustrator 23.0.3, SVG Export Plug-In . SVG Version: 6.00 Build 0)  -->
<svg version="1.1" id="Layer_1" xmlns="http://www.w3.org/2000/svg" xmlns:xlink="http://www.w3.org/1999/xlink" x="0px" y="0px"
	 viewBox="0 0 200 250" style="enable-background:new 0 0 200 250;" xml:space="preserve">
<style type="text/css">
	.st0{fill:#E1251B;}
	.st1{fill:#231F20;}
</style>
<g>
	<polygon class="st0" points="111.94,61.93 145.77,61.93 145.77,142.92 	"/>
	<polygon class="st0" points="88.11,61.93 54.26,61.93 54.26,142.92 	"/>
	<polygon class="st0" points="100.03,91.78 121.58,142.92 107.46,142.92 101.01,126.63 85.24,126.63 	"/>
	<g>
		<path class="st1" d="M60.66,180.22l-1.49,7.04c-0.05,0.27-0.14,0.32-0.36,0.32h-4.29c-0.27,0-0.36-0.09-0.32-0.45l5.91-25.5
			c0.18-0.77,0.18-1.17,0.18-2.48c0-0.18,0.09-0.27,0.27-0.27h6.14c0.23,0,0.32,0.09,0.36,0.32l6.91,28.03
			c0.05,0.27-0.05,0.36-0.27,0.36h-4.78c-0.23,0-0.36-0.14-0.36-0.32l-1.58-7.04H60.66z M66.03,175.39
			c-0.63-3.3-1.81-8.26-2.26-11.46h-0.05c-0.45,3.11-1.31,7.49-2.08,11.46H66.03z"/>
		<path class="st1" d="M74.73,176.61c0-6.51,3.83-11.55,9.94-11.55h0.71v-7.67c0-0.13,0.09-0.22,0.27-0.22h4.77
			c0.18,0,0.22,0.09,0.22,0.22v25.68c0,0.67-0.04,1.56,0.13,2.99c0,0.13,0,0.22-0.18,0.31c-1.83,0.94-4.19,1.56-6.46,1.56
			C78.52,187.93,74.73,184.28,74.73,176.61z M85.38,169.84c-0.22-0.09-0.45-0.13-0.98-0.13c-2.5,0-4.37,2.27-4.37,6.73
			c0,4.73,1.87,6.69,4.32,6.69c0.31,0,0.76-0.04,1.03-0.13V169.84z"/>
		<path class="st1" d="M109.72,176.43c0,7.04-2.94,11.5-8.11,11.5c-5.8,0-8.11-5.08-8.11-11.55c0-6.6,2.94-11.32,8.2-11.32
			C106.74,165.06,109.72,169.26,109.72,176.43z M98.71,176.43c0,4.15,0.89,6.87,2.9,6.87c1.92,0,2.85-2.32,2.85-6.82
			c0-4.19-0.71-6.78-2.81-6.78C99.83,169.7,98.71,171.8,98.71,176.43z"/>
		<path class="st1" d="M117.57,157.17c0.18,0,0.22,0.09,0.22,0.27v7.89c0.62-0.13,1.38-0.27,2.41-0.27c4.64,0,8.16,3.57,8.16,10.48
			c0,8.07-4.59,12.39-10.34,12.39c-1.65,0-3.34-0.22-5.17-0.8c-0.13-0.04-0.27-0.18-0.27-0.36v-29.33c0-0.18,0.09-0.27,0.27-0.27
			H117.57z M119.4,169.79c-0.36,0-1.11,0.04-1.6,0.22v13.15c0.36,0.09,0.67,0.09,0.94,0.09c2.01,0,4.37-2.05,4.41-7.58
			C123.19,171.35,121.45,169.79,119.4,169.79z"/>
		<path class="st1" d="M135.58,177.73c0,3.43,1.29,5.53,4.9,5.53c1.2,0,2.18-0.18,3.39-0.62c0.22-0.09,0.36-0.09,0.36,0.22v3.7
			c0,0.31-0.09,0.49-0.31,0.58c-1.25,0.67-2.94,0.8-4.41,0.8c-6.55,0-9.09-4.81-9.09-11.1c0-6.69,2.94-11.77,8.16-11.77
			c5.48,0,7.09,4.86,7.09,8.83c0,1.43-0.13,2.81-0.22,3.34c-0.04,0.22-0.18,0.31-0.4,0.36c-0.45,0.04-1.83,0.13-4.24,0.13H135.58z
			 M139.37,173.54c0.85,0,1.2,0,1.34-0.04c0.04-0.22,0.04-0.31,0.04-0.49c0-1.69-0.53-3.48-2.36-3.48c-1.78,0-2.5,1.83-2.72,4.01
			H139.37z"/>
	</g>
</g>
</svg>
