<?xml version="1.0" encoding="UTF-8"?>
<!-- Generator: Adobe Illustrator 23.0.2, SVG Export Plug-In . SVG Version: 6.00 Build 0)  -->
<svg version="1.1" id="Livello_1" xmlns="http://www.w3.org/2000/svg" xmlns:xlink="http://www.w3.org/1999/xlink" x="0px" y="0px" viewBox="0 0 552 162" style="enable-background:new 0 0 552 162;" xml:space="preserve">
<style type="text/css">
	.st0{fill:#CD152B;}
</style>
<path class="st0" d="M466.71,102.86c0-5.08,4-8.61,13.69-8.61c3.84,0,8.92,0.31,13.38,0.92v11.53c-5.23,2.92-12.92,4.46-17.99,4.46  C470.25,111.16,466.71,108.39,466.71,102.86 M515.31,123c-2-6.46-3.38-13.84-3.38-20.45V75.33c0-17.22-11.99-26.76-31.53-26.76  c-9.38,0-19.22,2.46-27.83,6.77l4.31,15.99c6.77-2,13.38-3.08,19.38-3.08c11.23,0,17.22,3.85,17.53,14.46  c-4.15-0.77-9.54-1.23-14.15-1.23c-18.45,0-32.14,8-32.14,24.6c0,12.92,7.84,22.15,21.84,22.15c11.23,0,19.68-3.69,25.84-9.54  c1.08,3.23,2.46,6.46,4.15,9.54L515.31,123z M437.8,106.24c-4.46,0.62-8.77,0.92-11.53,0.92c-7.07,0-9.69-3.23-9.69-10.92v-26.3  h22.91V50.42h-22.91V27.35h-15.53l-4.46,23.07h-32.3V27.35h-15.53L344.6,49.8l-10.46,1.69v18.45h11.84l-0.15,30.45  c-0.15,19.38,5.69,27.53,22.14,27.53c7.54,0,15.69-1.85,21.07-4.61l-3.54-17.07c-4.46,0.62-8.61,0.92-11.53,0.92  c-7.07,0-9.69-3.23-9.69-10.92v-26.3h33.83v30.45c-0.15,19.38,5.69,27.53,21.99,27.53c7.69,0,15.84-1.85,21.07-4.61L437.8,106.24z   M294.93,67.8c8.3,0,13.23,3.84,13.23,11.23c0,0.92,0,2.31-0.15,3.38h-29.37C280.32,71.95,286.47,67.8,294.93,67.8 M300.62,108.7  c-13.53,0-20.15-3.85-21.99-13.38h46.29c1.08-4.61,1.69-10.46,1.69-15.22c0-21.07-11.69-31.53-30.14-31.53  c-22.76,0-35.83,15.22-35.83,41.21c0,22.76,12.15,38.14,35.83,38.14c9.69,0,19.99-1.69,29.22-5.54l-4-15.99  C314.62,107.93,307.23,108.7,300.62,108.7 M200.51,106.24L196.2,123c6.61,3.08,14.76,4.92,23.37,4.92c19.99,0,32.6-9.69,32.6-25.38  c0-13.53-9.38-17.07-23.99-21.07c-7.53-2-13.07-3.69-13.07-7.54c0-3.23,4-5.23,11.07-5.23c4.15,0,11.23,0.62,18.61,2l4.15-17.22  c-5.54-2.62-13.69-4.61-21.68-4.61c-18.45,0-31.06,11.07-31.06,25.38c0,13.22,10.92,17.07,21.07,19.84  c8.3,2.15,15.69,4.31,15.69,8.61c0,3.54-4,5.54-12,5.54C215.43,108.24,206.35,107.47,200.51,106.24 M152.99,70.26  c9.23,0,16.3,5.38,16.3,18.15c0,12.3-6.3,18.76-16.61,18.76c-9.84,0-16.3-6-16.3-18.15C136.38,77.02,142.69,70.26,152.99,70.26   M152.99,48.57c-22.45,0-34.29,17.07-34.29,39.98s11.84,39.68,34.14,39.68s34.14-16.61,34.14-39.99  C186.98,65.33,175.13,48.57,152.99,48.57 M62.72,77.95h-5.08V50.88c3.69-0.46,8.61-0.77,11.69-0.77c10.61,0,18.45,3.85,18.45,13.07  C87.78,74.1,76.56,77.95,62.72,77.95 M111.62,117.16L90.55,89.02c9.53-5.38,16.15-14.61,16.15-28.45  c0-19.99-13.07-31.22-38.91-31.22c-10.92,0-22.76,1.54-29.68,3.23v93.81h19.53V95.17h6.15c2.61,0,5.38-0.15,8.15-0.46l21.22,33.68  L111.62,117.16z"/>
</svg>