<svg id="Livello_1" data-name="Livello 1" xmlns="http://www.w3.org/2000/svg" viewBox="0 0 494.07 105.42"><defs><style>.cls-1{fill:#1d1d1b;}</style></defs><title>Logo_rest_beta_sb</title><path class="cls-1" d="M371.66,87.09c-.49,3.84-4.33,16.45-6.5,22.66-3.35,5.22-9.76,11-15.08,11-2.85,0-3.74-2.36-3.74-5.71,6-7.39,10.54-14.88,10.54-20.89,0-4.83-3.15-8.18-8.17-8.18C342,86,335,91.72,326,109.75h0c-2.47,5.12-7,11-10.54,11-3.16,0-3.55-3.35-3.55-5.71,4.43-7.29,10.94-19.31,10.94-23.35,0-2.17-5.42-4.63-8.18-4.63a138.75,138.75,0,0,1-4.14,15.27h-.1a25.47,25.47,0,0,0,.4-4.24c0-5.51-1.58-12.21-8.87-12.21-8,0-16.8,11.47-22,23.41-4.33,7.4-9.7,11.46-13,11.46s-3.55-3.35-3.55-5.71c10.84-20.89,16.94-36.85,16.94-41.87,0-3.65-7.09-5.82-9.85-5.82-.39,4.44-4.23,19.71-8.47,35H262a25.56,25.56,0,0,0,.39-4.24c0-5.51-1.57-12.21-8.86-12.21-8,0-16.81,11.47-22,23.41-4.33,7.4-9.7,11.46-13,11.46s-3.44-3.35-3.54-5.71c5.81-5.91,11.43-12.51,11.43-19.8,0-5.62-3.16-9.27-8.87-9.27C209,86,202,93.89,198,100.68a14.79,14.79,0,0,0-.88,1.88l-.1-.1a37.46,37.46,0,0,0,1.77-9.95c0-2.86-1.28-6.51-5.81-6.51-5.32,0-10.64,5.72-19.51,23.75h0c-2.07,4.34-6.7,11-10.54,11-3.15,0-3.55-3.35-3.55-5.71,4.44-7.29,10.94-19.31,10.94-23.35,0-2.17-5.42-4.63-8.18-4.63-.19,2.56-3.54,15.07-6.1,22.66-3.36,5.22-10.45,11-15.77,11-2.86,0-3.74-2.46-3.74-5.71,5.22-6.8,10.54-13.89,10.54-20.89,0-4.83-3.15-8.18-8.28-8.18-4.43,0-7.19,3.35-9.85,6.61-1.77,2.06-4.14,4.23-6.5,4.23-2.56,0-3.25-1.67-3.25-4.63,5-4.63,8.87-9.56,8.87-16.94,0-7.59-7-13.8-17-13.8-14.78,0-25.71,14-25.71,26.7,0,8.57,5.91,13.6,11.82,18.62a50.05,50.05,0,0,1,8.57,8.58c0,3.25-2.46,4.43-6.8,4.43-8.37,0-17.54-3.35-18.92-9.46-4.23,0-10,5.42-10,12.71,0,8.18,7.48,14.29,22.75,14.29,13.5,0,20.69-7.59,20.69-16.56,0-8.27-6-13.49-11.62-18.42-5.32-4.63-10.25-9-10.25-15.27,0-6.6,4.73-9.16,10.45-9.16S116.5,80,116.5,84.13c0,1.38-.4,3.35-2.76,5.52-3.35,3.15-5.52,6.4-5.52,10a10,10,0,0,0,10.25,10.15h0c4.14,0,7.49-3,10.14-5.32,1.78-1.58,3.45-3,4.73-3a2.26,2.26,0,0,1,2.47,2.37c0,2.36-1.19,4.43-3.75,7-3.74,3.75-8.37,8.47-8.37,16.26,0,5.61,3.64,10.15,9.26,10.15,7.88,0,15.17-7.89,19.21-14.68a15,15,0,0,0,.89-1.88l.1.1a16.51,16.51,0,0,0-.69,2.07,32.52,32.52,0,0,0-1.18,7.88c0,3.75,1.18,6.51,4.73,6.51,7.19,0,16.84-14.49,22.26-25.32h0c3.84-7.58,6.7-10.44,8.87-10.44,3.34,0,3.54,4.44,3.54,8-5.71,7.79-11.33,16.26-11.33,21.48,0,4,2.46,6.31,7.29,6.31,6.9,0,12.32-6.9,12.32-14.49a18.94,18.94,0,0,0-.2-2.36,4.37,4.37,0,0,1-1.58.29c-3.05,0-3.44-3.25-3.44-6.1,3.74-6.31,11.43-13.11,16.25-13.11,2.47,0,3.55,1.48,3.55,3.75,0,1.77-1.18,4.23-4.53,9-3,4.14-6,8.87-6,14,0,6.41,3.94,9.07,8.27,9.07,6.41,0,12-7.39,16.36-16.56h.16a31.36,31.36,0,0,0-.76,6.41c0,5.61,3.65,10.15,9.27,10.15,7.88,0,16-7.89,20-14.68a16.32,16.32,0,0,0,.88-1.88l.1.1a18.34,18.34,0,0,0-.69,2.07,32.52,32.52,0,0,0-1.18,7.88c0,3.75,1.18,6.51,4.73,6.51,6,0,11.63-7.39,16-16.56h.16a31.3,31.3,0,0,0-.75,6.41c0,5.61,3.64,10.15,9.26,10.15,7.88,0,16-7.89,20-14.68a14.79,14.79,0,0,0,.88-1.88l.1.1a18.34,18.34,0,0,0-.69,2.07,32.52,32.52,0,0,0-1.18,7.88c0,3.75,1.18,6.51,4.73,6.51,7.39,0,17.54-15.57,22.27-25.32h0c4.14-8.47,7.88-10.44,11.23-10.44a3,3,0,0,1,3.06,3.06c0,2.26-1.48,4.33-3.75,6.79-3.35,3.55-8.37,9.27-8.37,15.77s4.14,10.15,9.75,10.15c7.89,0,15.18-7.89,19.22-14.68a16.32,16.32,0,0,0,.88-1.88l.1.1a18.34,18.34,0,0,0-.69,2.07c-5.81,23.25-16.35,27.39-23.25,27.39s-10.44-4.14-10.44-7.78a6.91,6.91,0,0,1,.29-2.07l-.29-.1a14.06,14.06,0,0,0-10.55,13.3c0,7.59,5.42,13.2,16,13.2,20.6,0,32.81-22.66,35.18-51.82,4.43-7.29,10.94-19.31,10.94-23.35C380.14,89.55,374.42,87.09,371.66,87.09ZM241.12,120.78c-4.33,0-5.81-2.36-5.81-5.71,3.55-7.09,11.43-13.5,17.93-13.5,3.84,0,7.19,2.37,7.19,8.18C255.21,117.63,246.15,120.78,241.12,120.78Zm48.47,0c-4.33,0-5.81-2.36-5.81-5.71,3.74-7.29,11.43-13.5,17.93-13.5,3.85,0,7.19,2.37,7.19,8.18C303.68,117.63,294.62,120.78,289.59,120.78Z" transform="translate(-70 -61.47)"/><path class="cls-1" d="M423.29,106.4c-7-2.46-15.37-5.81-15.37-9.36,17-.1,31.52-9.56,31.52-22.37,0-6.5-3.64-12.21-12.8-12.21-10.94,0-24.14,12.51-33.7,28l-.2-.1c1-1.87,3.06-6,3.06-7.88,0-1.48-2.57-3.55-5-3.55a10.66,10.66,0,0,0-1.77.2A165.25,165.25,0,0,0,382.69,113a50,50,0,0,0-2.36,14.48c0,3.16,3.45,5.32,7,5.32a8.62,8.62,0,0,0,1.68-.19,39.12,39.12,0,0,1-.69-7.59c0-23.25,16.45-46.11,33.79-46.11,2.86,0,5,1.38,5,3.55,0,4.83-10.05,9.36-21.09,9.36h-1.67a6.7,6.7,0,0,0-2.86,5.42c0,8,13.5,12.61,22.66,15.46,0,5-5,7.1-12.41,7.1-8.67,0-11.63-3.15-13-4.83-2.36,1-6.8,5.22-6.8,10.74,0,7.69,6.11,11.73,14.59,11.73,14.09,0,25.51-10.25,25.51-20.5C432.05,110.54,428.9,108.37,423.29,106.4Z" transform="translate(-70 -61.47)"/><path class="cls-1" d="M476.39,82.56c4.92,0,8.08-4.73,8.08-8.67a5,5,0,0,0-5.13-5.32c-5,0-8.17,4.92-8.17,8.57A5.18,5.18,0,0,0,476.39,82.56Z" transform="translate(-70 -61.47)"/><path class="cls-1" d="M460.13,81.57c4.93,0,8.08-4.73,8.08-8.67a5,5,0,0,0-5.12-5.32c-5,0-8.18,4.93-8.18,8.57A5.18,5.18,0,0,0,460.13,81.57Z" transform="translate(-70 -61.47)"/><path class="cls-1" d="M550.67,85.91c-9.27,0-17.39,9.77-21.77,20.78-4.51,9.06-10.75,14.09-14.39,14.09-3.15,0-3.45-3.35-3.54-5.71,4.92-4.14,11.42-12.51,11.42-19.8,0-5.62-3.15-9.27-8.86-9.27a21.07,21.07,0,0,0-6.21,1.19,22.5,22.5,0,0,1-6.5,1.08,16.15,16.15,0,0,1-1.7-.1,21.21,21.21,0,0,0,.62-4.23c0-1.78-1.28-2.66-3.94-2.66,0,4.72-9.86,39.5-19.81,39.5-3.15,0-3.54-3.35-3.54-5.71,4.43-7.29,10.93-19.31,10.93-23.35,0-2.17-5.42-4.63-8.18-4.63a179,179,0,0,1-6.1,22.66c-3.35,5.22-10.45,11-15.77,11-2.86,0-3.74-2.46-3.74-5.71,5.22-6.8,10.54-13.89,10.54-20.89,0-4.83-3.15-8.18-8.28-8.18-3.64,0-6.1,2-8.76,4.14-2.86,2.37-8.18,5.52-11.83,5.52a19,19,0,0,0-.2,2.27c0,5.22,2.86,8.86,6.21,8.86,2.76,0,4.73-1.67,6.31-3.15,1.18-1.18,2.36-2.07,3.64-2.07a2.26,2.26,0,0,1,2.47,2.37c0,2.36-2,4.43-4.54,7-3.74,3.75-8.37,8.47-8.37,16.26,0,5.61,3.65,10.15,9.26,10.15,7.88,0,15.17-7.89,19.21-14.68a15,15,0,0,0,.89-1.88l.1.1a16.51,16.51,0,0,0-.69,2.07,32.52,32.52,0,0,0-1.18,7.88c0,3.75,1.18,6.51,4.73,6.51,7.39,0,17.34-13.21,23.15-28.08.87-2.26,1.77-4.67,2.62-7.09a11.18,11.18,0,0,0,3.09.49,17,17,0,0,0,3.94-.5,17.64,17.64,0,0,1,4-.59c2.46,0,3.55,1.48,3.55,3.75,0,2.46-2,5.32-4.24,8.47-3.05,4.24-6.31,9.06-6.31,14.48,0,5.62,3.26,9.07,8.18,9.07,7.88,0,14.09-8.87,18.33-17.84h.19c-.12,1.22-.19,2.4-.19,3.55,0,8.08,3.54,14.29,11.33,14.29,13.49,0,27.29-19.31,27.29-35.77C564.07,92.51,558.85,85.91,550.67,85.91Zm-12.12,34.87c-4.34,0-6.6-2.36-6.6-5.71,3.25-7.69,12.22-13.5,18.72-13.5,3.84,0,6.89,2.37,6.89,8.18C552.34,117.63,543.57,120.78,538.55,120.78Z" transform="translate(-70 -61.47)"/></svg>