<?xml version="1.0" encoding="utf-8"?>
<!-- Generator: Adobe Illustrator 23.0.2, SVG Export Plug-In . SVG Version: 6.00 Build 0)  -->
<svg version="1.1" id="Livello_1" xmlns="http://www.w3.org/2000/svg" xmlns:xlink="http://www.w3.org/1999/xlink" x="0px" y="0px"
	 viewBox="0 0 600 600" style="enable-background:new 0 0 600 600;" xml:space="preserve">
<style type="text/css">
	.st0{fill:#1D1C1A;}
	.st1{fill:#FFFFFF;}
</style>
<g>
	<circle class="st0" cx="300.22" cy="299.95" r="237.95"/>
	<g>
		<path class="st1" d="M160.88,225.99l15.17,56.59l-18.15,4.86l-15.17-56.59l-25.63,6.87l-4.86-18.15l69.3-18.57l4.86,18.15
			L160.88,225.99z"/>
		<path class="st1" d="M204.49,194.85l7.87,29.37c1.91-6.12,5.95-11.55,14.17-13.75c11.75-3.15,20.02,2.53,23.54,15.67l9.15,34.17
			l-17.3,4.64l-7.58-28.3c-1.89-7.05-5.62-9.02-10.75-7.65c-5.66,1.52-8.17,6.66-6.03,14.66l6.95,25.95l-17.08,4.58l-20.03-74.75
			L204.49,194.85z"/>
		<path class="st1" d="M281.09,195.85c16.02-4.29,29.64,3.39,34.47,21.43l1.23,4.59l-37.27,9.99l0.16,0.18
			c3.77,4.25,9.75,4.37,14.13,3.19c5.55-1.49,9.98-4.16,13.06-7.62l10.45,12.54c-3.68,4.19-9.3,8.44-19.76,11.24
			c-19.22,5.15-32.93-5.02-37.05-20.4C256.29,215.19,263.9,200.45,281.09,195.85z M284.01,210.17c-4.7,1.26-8,4.32-8.12,9.84
			l19.12-5.12C293.41,211.09,289.24,208.77,284.01,210.17z"/>
		<path class="st1" d="M170.06,295.27c21.14-5.66,40.43,6.11,46.21,27.68c5.78,21.57-5.04,41.4-26.19,47.07L162,377.55l-20.03-74.75
			L170.06,295.27z M174.93,313.43l-9.93,2.66l10.3,38.44l9.93-2.66c10.89-2.92,15.82-13.16,12.9-24.05
			C195.2,316.92,185.82,310.51,174.93,313.43z"/>
		<path class="st1" d="M245.48,296.58c16.02-4.29,29.63,3.39,34.47,21.43l1.23,4.59l-37.27,9.99l0.16,0.19
			c3.77,4.25,9.75,4.37,14.13,3.19c5.55-1.49,9.99-4.16,13.07-7.62l10.45,12.53c-3.68,4.19-9.3,8.44-19.76,11.25
			c-19.22,5.15-32.93-5.02-37.05-20.4C220.68,315.93,228.29,301.19,245.48,296.58z M248.4,310.9c-4.7,1.26-8,4.32-8.12,9.84
			l19.12-5.12C257.81,311.82,253.63,309.5,248.4,310.9z"/>
		<path class="st1" d="M303.46,281.05c9.29-2.49,16.86-2,22.87-0.06l-4.48,15.74c-4.21-1.62-11.23-1.34-15.93-0.08
			c-3.42,0.91-4.39,1.97-4.08,3.15c0.34,1.28,1.79,1.12,13.31,0.55c10.05-0.52,17.58,2.39,20.41,12.96
			c3.35,12.49-4.19,20.23-19.89,24.44c-10.36,2.77-19.42,2.69-25.48-0.27l4.71-16.6c4.54,1.99,10.86,3.38,18.87,1.24
			c2.13-0.57,4.64-1.47,4.16-3.29c-0.37-1.39-2.17-1.25-12.78-0.7c-7.8,0.37-17.88-1.39-20.97-12.92
			C281.06,293.57,288.51,285.05,303.46,281.05z"/>
		<path class="st1" d="M335.35,246.75c5.77-1.55,11.18,1.58,12.73,7.35c1.54,5.77-1.58,11.18-7.35,12.73
			c-5.77,1.54-11.18-1.58-12.73-7.35C326.46,253.71,329.58,248.3,335.35,246.75z M350.67,269.77l14.31,53.39l-17.08,4.58
			l-14.31-53.39L350.67,269.77z"/>
		<path class="st1" d="M383.21,259.67c7.79-2.09,14.86,0.37,19.03,4.4l-2.03-7.58l17.08-4.58l13.25,49.44
			c3.89,14.52-0.43,28.73-23.81,34.99c-9.29,2.49-17.28,2.57-24.74,0.79l2.74-17.1c5.93,1.62,11.21,1.69,16.34,0.31
			c11-2.95,14.2-8.5,12.29-15.65l-0.74-2.78c-2.21,5.86-7.07,10.36-14.22,12.28c-13.13,3.52-26.83-2.31-31.69-20.46
			C361.81,275.48,370.83,262.99,383.21,259.67z M392.94,275.04c-6.19,1.66-10.52,7.28-8.64,14.33c1.89,7.05,8.45,9.75,14.64,8.09
			c6.19-1.66,10.52-7.28,8.64-14.33C405.7,276.08,399.13,273.38,392.94,275.04z"/>
		<path class="st1" d="M461.91,238.59c11.75-3.15,20.02,2.53,23.54,15.67l9.15,34.17l-17.3,4.64l-7.58-28.3
			c-1.89-7.05-5.62-9.02-10.75-7.65c-5.66,1.52-8.17,6.65-6.03,14.66l6.95,25.95l-17.08,4.58l-14.31-53.39l16.66-4.46l2.15,8.01
			C449.33,246.77,453.58,240.82,461.91,238.59z"/>
		<path class="st1" d="M203.37,426.41l-5.99,10.53l5.58,20.82l-18.15,4.86l-20.03-74.74l18.15-4.86l7.52,28.08l20.56-35.61
			l25.52-6.84l-23.78,41.51l44.03,33.18l-23.06,6.18L203.37,426.41z"/>
		<path class="st1" d="M249.99,360.82c5.77-1.55,11.18,1.58,12.73,7.35c1.55,5.77-1.58,11.18-7.35,12.73
			c-5.77,1.54-11.18-1.58-12.73-7.35C241.1,367.78,244.22,362.36,249.99,360.82z M265.31,383.83l14.31,53.39l-17.08,4.58
			l-14.31-53.39L265.31,383.83z"/>
		<path class="st1" d="M326.22,344.63l20.03,74.75l-17.08,4.58l-1.95-7.26c-2.38,6.48-7.51,11.28-14.87,13.26
			c-12.28,3.29-25.9-3.13-30.91-21.82c-5.01-18.69,3.47-31.03,15.54-34.26c8.22-2.2,15.4,0.22,19.92,4.28l-7.75-28.94L326.22,344.63
			z M298.94,403.44c1.89,7.05,8.45,9.75,14.64,8.09c6.19-1.66,10.52-7.28,8.63-14.33c-1.89-7.05-8.45-9.75-14.64-8.09
			C301.39,390.76,297.06,396.39,298.94,403.44z"/>
		<path class="st1" d="M365.44,355.63c9.29-2.49,16.86-2,22.87-0.06l-4.48,15.74c-4.21-1.62-11.23-1.34-15.93-0.08
			c-3.42,0.92-4.39,1.98-4.08,3.16c0.34,1.28,1.79,1.12,13.31,0.55c10.05-0.51,17.58,2.39,20.41,12.96
			c3.35,12.49-4.19,20.24-19.89,24.44c-10.36,2.78-19.42,2.69-25.48-0.27l4.71-16.6c4.54,1.99,10.86,3.38,18.87,1.24
			c2.14-0.57,4.64-1.47,4.15-3.29c-0.37-1.39-2.17-1.25-12.78-0.7c-7.8,0.37-17.88-1.39-20.97-12.92
			C343.05,368.16,350.49,359.64,365.44,355.63z"/>
	</g>
</g>
</svg>
